# xmcd
#
# Track frame offsets: 
#        150
#        11557
#        24476
#        33649
#        44184
#        61419
#        79912
#        94101
#        110445
#        123394
#        139505
#        151131
#        164060
#        180375
#        192499
#        210620
#        230443
#        245116
#        258216
#        273929
#        289360
#        304217
#
# Disc length: 4195 seconds
#
# Revision: 0
# Processed by: cddbd v1.5.2PL0 Copyright (c) Steve Scherf et al.
# Submitted via: ExactAudioCopy v0.99pb4
#
DISCID=41106116
DTITLE=The Larsen Brothers and The Ol' Five and Dimers - From the Prairi
DTITLE=e to the Bunkhouse
DYEAR=1900
DGENRE=Western
TTITLE0=Back In the Saddle Again
TTITLE1=Any Old Time
TTITLE2=Roll Along Prairie Moon
TTITLE3=Blue Railroad Train
TTITLE4=Man of Galilee
TTITLE5=Roundup In the spring
TTITLE6=Four Strong Winds
TTITLE7=What Does the Deep Sea Say
TTITLE8=Cattle Call
TTITLE9=Sweet Temptation
TTITLE10=Utah Trail
TTITLE11=Police Dog Blues
TTITLE12=When the Roses Bloom Next Spring
TTITLE13=Peach Pickin' Time In Georgia
TTITLE14=Everybody's Reaching Our For Someone
TTITLE15=The Happiness He Found
TTITLE16=New Stranger Blues
TTITLE17=Alone In the Old Rockin' Chair
TTITLE18=Hobo Bill
TTITLE19=Mansion Over the Hilltop
TTITLE20=When My Blue Moon Turns to Gold Again
TTITLE21=Using My Bible For a Road Map
EXTD=
EXTT0=
EXTT1=
EXTT2=
EXTT3=
EXTT4=
EXTT5=
EXTT6=
EXTT7=
EXTT8=
EXTT9=
EXTT10=
EXTT11=
EXTT12=
EXTT13=
EXTT14=
EXTT15=
EXTT16=
EXTT17=
EXTT18=
EXTT19=
EXTT20=
EXTT21=
PLAYORDER=
